<?xml version="1.0" encoding="UTF-8"?>
<svg version="1.1" xmlns="http://www.w3.org/2000/svg" width="1024" height="1024">
<path d="M0 0 C337.92 0 675.84 0 1024 0 C1024 337.92 1024 675.84 1024 1024 C686.08 1024 348.16 1024 0 1024 C0 686.08 0 348.16 0 0 Z " fill="#06001D" transform="translate(0,0)"/>
<path d="M0 0 C1.04542813 -0.00453111 2.09085627 -0.00906223 3.16796404 -0.01373065 C6.67627553 -0.02640616 10.18443241 -0.02475223 13.69276428 -0.02310181 C16.20590414 -0.02908501 18.71904215 -0.03589007 21.23217773 -0.04345703 C27.35299212 -0.05930606 33.47374974 -0.06556624 39.59458273 -0.06668179 C44.56962773 -0.06763244 49.54466002 -0.07174357 54.519701 -0.07808304 C68.62618 -0.0956924 82.73262858 -0.10492221 96.83911865 -0.10342209 C97.59938616 -0.10334218 98.35965367 -0.10326227 99.14295959 -0.10317993 C100.28475361 -0.10305729 100.28475361 -0.10305729 101.44961417 -0.10293217 C113.78989434 -0.10211901 126.13005252 -0.12126495 138.47029739 -0.14945666 C151.14245242 -0.17817819 163.81454794 -0.19199741 176.48673636 -0.19026911 C183.60075729 -0.18960503 190.71465028 -0.19510539 197.82864189 -0.21662521 C204.51732461 -0.23672899 211.20569204 -0.23617092 217.89440346 -0.22159195 C220.35104135 -0.21949581 222.80769593 -0.22425234 225.26430511 -0.23631287 C228.61443105 -0.25169658 231.96361575 -0.24250185 235.3137207 -0.22705078 C236.77651338 -0.24248147 236.77651338 -0.24248147 238.26885742 -0.25822389 C244.0688439 -0.19899094 247.27914951 0.45068815 251.72035217 4.26742554 C254.50453121 7.86654336 255.09763531 10.48316038 255.10853577 14.98812866 C255.11799225 16.11279541 255.12744873 17.23746216 255.13719177 18.39620972 C255.12808273 20.2041803 255.12808273 20.2041803 255.11878967 22.04867554 C255.12165985 23.29491699 255.12453003 24.54115845 255.12748718 25.82516479 C255.13004864 29.13105028 255.11799799 32.43651099 255.10121155 35.74234009 C255.09535731 37.76565037 255.10119154 39.78857031 255.11146545 41.81185913 C255.12999925 45.70348198 255.1277524 49.5945286 255.11878967 53.48617554 C255.12486237 54.69148926 255.13093506 55.89680298 255.13719177 57.13864136 C255.12773529 58.26330811 255.11827881 59.38797485 255.10853577 60.54672241 C255.10614899 61.53313721 255.10376221 62.519552 255.1013031 63.53585815 C254.5417826 67.54783932 252.93751076 70.06608025 250.07703876 72.88938904 C246.85081994 74.77587123 243.91982711 74.68169268 240.28762817 74.64596558 C239.53636467 74.65049571 238.78510116 74.65502584 238.0110721 74.65969324 C235.49219594 74.67132617 232.97384991 74.66166682 230.45497131 74.65219116 C228.64970557 74.65629586 226.84444248 74.66175613 225.03918457 74.66847229 C221.15081677 74.68020474 217.26259093 74.68267897 213.37420845 74.67811584 C207.22693747 74.67131474 201.07985381 74.68715937 194.93261719 74.70651245 C181.88270563 74.74439541 168.83281029 74.75717208 155.78285217 74.76742554 C141.69857875 74.77849379 127.61439128 74.79381095 113.53017706 74.8381381 C107.41822886 74.85651382 101.30649414 74.8603797 95.19452488 74.85320282 C91.39316545 74.85168237 87.59191308 74.862456 83.79058266 74.87658119 C82.02693332 74.88058826 80.26326372 74.87945132 78.49962234 74.87280846 C76.0928391 74.86443906 73.68679824 74.8744029 71.28005981 74.8888855 C70.58141801 74.88199156 69.88277621 74.87509763 69.16296345 74.86799479 C64.84940528 74.91859497 62.17592824 75.67360957 58.72035217 78.26742554 C56.05270207 81.77185721 56.42460669 85.83838707 56.42982483 90.06185913 C56.4231076 90.8428447 56.41639038 91.62383026 56.4094696 92.42848206 C56.39048763 95.00767395 56.38656532 97.58660565 56.38441467 100.16586304 C56.37798685 101.96181342 56.3712585 103.75776275 56.36424255 105.55371094 C56.35226928 109.31800768 56.34856178 113.08221265 56.3497467 116.8465271 C56.34994989 121.66413471 56.32264864 126.48115239 56.28820229 131.29862022 C56.26593715 135.00816538 56.26190904 138.71756848 56.26296616 142.42717361 C56.26060958 144.20294859 56.25178285 145.97872744 56.23630142 147.75443649 C56.21664897 150.24144246 56.22247588 152.72717529 56.23451233 155.21420288 C56.22327332 155.94375687 56.2120343 156.67331085 56.20045471 157.42497253 C56.26251496 162.4851924 57.53236053 165.37241568 60.72035217 169.26742554 C63.42782036 170.62115963 65.53788026 170.3952226 68.57037354 170.39872742 C69.8167157 170.4027356 71.06305786 170.40674377 72.34716797 170.41087341 C73.73612978 170.41039828 75.12509158 170.40986216 76.51405334 170.40927124 C77.97095343 170.41230206 79.42785256 170.41582329 80.88475037 170.4197998 C84.02718397 170.42769652 87.16960619 170.43283668 90.31204796 170.43609047 C95.28349666 170.44199623 100.25487359 170.45853347 105.22628784 170.47743225 C106.92793174 170.48376997 108.62957569 170.49009559 110.33121967 170.49640942 C111.60969035 170.50115813 111.60969035 170.50115813 112.91398871 170.50600278 C124.49013674 170.548081 136.06625193 170.58104377 147.64247131 170.59335327 C155.4474571 170.60173801 163.25226584 170.62424599 171.05716306 170.66270894 C175.1872401 170.6824598 179.31705252 170.69487755 183.44717979 170.68987465 C187.33544385 170.68522235 191.22320698 170.69906487 195.11137009 170.72688675 C196.53552799 170.73378945 197.95973778 170.73393496 199.38389397 170.72668648 C213.06718035 170.66409816 213.06718035 170.66409816 218.72035217 175.26742554 C221.0401816 178.35715393 220.98721015 181.24764163 221.02674866 185.04232788 C221.04273605 186.20388397 221.05872345 187.36544006 221.07519531 188.56219482 C221.08055801 189.81328033 221.08592072 191.06436584 221.09144592 192.35336304 C221.1004744 193.64303986 221.10950287 194.93271667 221.11880493 196.26147461 C221.1352745 198.99004617 221.14299128 201.71849534 221.14588928 204.44711304 C221.15127112 207.93322163 221.18894856 211.41817035 221.23463345 214.90395164 C221.27163786 218.24124953 221.27292156 221.57836704 221.27894592 224.91586304 C221.29847824 226.16290009 221.31801056 227.40993713 221.33813477 228.69476318 C221.28789776 238.34800956 221.28789776 238.34800956 218.31044006 242.03939819 C214.52787659 245.29320857 212.74433621 245.39218464 207.82563782 245.39199829 C205.9413356 245.39584282 205.9413356 245.39584282 204.01896667 245.39976501 C202.6189727 245.39769491 201.21897881 245.39557216 199.81898499 245.3934021 C198.35061082 245.39479646 196.88223706 245.39669551 195.41386414 245.39906311 C192.2468712 245.40356522 189.07989125 245.40541631 185.9128952 245.40552521 C180.9039175 245.40666417 175.89501375 245.41949279 170.88606262 245.43508911 C170.04113416 245.43766196 169.1962057 245.44023482 168.32567334 245.44288564 C166.59763839 245.44815241 164.8696035 245.45343789 163.14156866 245.45874166 C151.47771436 245.49386477 139.81395122 245.52040419 128.15003967 245.51791382 C120.28607771 245.51632502 112.42236712 245.53236684 104.55848575 245.56862044 C100.39652479 245.58708147 96.23498349 245.59642249 92.07299042 245.58414459 C88.15591941 245.57270176 84.23959921 245.58442495 80.32262802 245.61377907 C78.88675926 245.62041593 77.45082168 245.61855902 76.01498032 245.607481 C67.41945268 245.24465437 67.41945268 245.24465437 59.88166809 248.68264771 C57.00353669 252.12468512 56.59446951 253.66370084 56.57318115 258.04772949 C56.56602585 259.05703018 56.55887054 260.06633087 56.55149841 261.10621643 C56.54880951 262.21789688 56.54612061 263.32957733 56.54335022 264.47494507 C56.53677902 265.64256882 56.53020782 266.81019257 56.5234375 268.01319885 C56.50366538 271.89220523 56.49203079 275.77119808 56.48207092 279.65023804 C56.478023 280.98672379 56.47390606 282.32320934 56.46972084 283.65969467 C56.45066313 289.94199116 56.4364362 296.22427589 56.42810887 302.50659573 C56.41834917 309.74955881 56.39206569 316.99221525 56.35160798 324.23507035 C56.32139096 329.83773969 56.30663453 335.44032146 56.30332786 341.04307067 C56.30098263 344.38692565 56.29010591 347.73019401 56.26686668 351.07400894 C56.24251465 354.81076653 56.24343397 358.54672613 56.25038147 362.28353882 C56.23757141 363.38307388 56.22476135 364.48260895 56.21156311 365.61546326 C56.26048671 372.84583176 57.14646352 378.68442888 62.40730095 383.95867348 C65.66508794 385.80196834 68.21642704 385.64393069 71.94979858 385.64596558 C73.0439505 385.65276077 73.0439505 385.65276077 74.1602065 385.65969324 C76.60532241 385.67132385 79.04989196 385.66166773 81.49501038 385.65219116 C83.24777073 385.65629604 85.00052835 385.66175642 86.75328064 385.66847229 C90.52869271 385.6802045 94.30395857 385.68267901 98.07938576 385.67811584 C104.05078224 385.67131211 110.02198604 385.68716462 115.99334717 385.70651245 C128.67317176 385.74439478 141.35297967 385.75716814 154.03285217 385.76742554 C167.71112293 385.77849717 181.38930514 385.79386114 195.06751508 385.8381381 C201.00161579 385.8564889 206.9354967 385.86038843 212.86961901 385.85320282 C216.56509699 385.85167954 220.26046534 385.86247417 223.95591354 385.87658119 C225.66712086 385.88057949 227.37834908 385.87946626 229.08954811 385.87280846 C231.42995084 385.86440357 233.76959736 385.87444344 236.10995483 385.8888855 C238.07249443 385.88995426 238.07249443 385.88995426 240.07468128 385.89104462 C245.58376429 386.45980515 249.46643522 387.77346179 253.12684631 392.13461304 C255.76866814 397.52935599 255.27090577 403.52374822 255.21644592 409.39242554 C255.21790115 410.65328979 255.21935638 411.91415405 255.22085571 413.21322632 C255.21919924 415.87313003 255.20977269 418.53159038 255.18690491 421.19125366 C255.15852081 424.58391643 255.1612641 427.97567879 255.17399502 431.3684082 C255.18266018 434.62647105 255.16749071 437.88439069 255.15394592 441.14242554 C255.15688156 442.35301636 255.1598172 443.56360718 255.1628418 444.81088257 C255.09357248 451.02603687 254.90118934 455.84957261 251.72035217 461.26742554 C246.61992426 465.3052643 242.88406483 466.39057532 236.48432922 466.41459656 C234.52440536 466.42532951 234.52440536 466.42532951 232.52488708 466.4362793 C231.07344079 466.43911955 229.62199424 466.44183128 228.17054749 466.44442749 C226.64453476 466.45069284 225.11852357 466.45733971 223.59251404 466.46434021 C218.57784588 466.48537468 213.56317743 466.49574208 208.54847717 466.50570679 C206.82161696 466.50975458 205.09475692 466.51387151 203.36789703 466.51805687 C195.2547387 466.53710726 187.14158946 466.55133856 179.02841306 466.55966884 C169.66586255 466.56944085 160.30354848 466.59575998 150.94108129 466.63616973 C143.7027527 466.66633834 136.46449187 466.68113842 129.22610164 466.68444985 C124.90373796 466.68679952 120.58162693 466.69574895 116.25933075 466.72091103 C112.19138109 466.74420989 108.1238501 466.74841785 104.05585098 466.73814964 C102.56554648 466.73765461 101.07522125 466.74396563 99.58498001 466.75770569 C85.57100094 466.87965095 85.57100094 466.87965095 79.72035217 462.26742554 C76.11743117 458.43307603 73.36194409 454.25137688 70.53285217 449.82992554 C64.55038157 440.91420396 56.64782003 436.5345324 47.26332092 431.72445679 C42.23665763 428.84435631 39.0727793 425.75529061 36.03285217 420.82992554 C35.45148499 419.9030896 34.8701178 418.97625366 34.27113342 418.02133179 C31.79883224 413.63097325 30.46771487 410.13135772 30.45472717 405.06430054 C30.45214905 404.08332397 30.44957092 403.10234741 30.44691467 402.09164429 C30.45464905 401.0771521 30.46238342 400.06265991 30.47035217 399.01742554 C30.45875061 397.51889038 30.45875061 397.51889038 30.44691467 395.99008179 C30.46129107 390.49111054 30.95007751 385.56302412 32.28431702 380.23324585 C33.91940914 372.8615987 32.13460127 365.54972383 28.15785217 359.29086304 C27.44628967 358.28926147 27.44628967 358.28926147 26.72035217 357.26742554 C26.28722717 356.64094116 25.85410217 356.01445679 25.40785217 355.36898804 C19.72918486 347.9802675 10.77288237 343.17167946 1.72035217 341.26742554 C-0.27715534 341.09070235 -2.2777289 340.94649297 -4.27964783 340.82992554 C-10.56558454 340.41353228 -16.11265584 339.16273929 -20.87339783 334.81039429 C-24.74092937 330.36947871 -26.52810671 326.80839431 -26.53691673 320.95619583 C-26.54336563 319.8733126 -26.54981452 318.79042937 -26.55645883 317.67473149 C-26.55336163 316.48564584 -26.55026442 315.2965602 -26.54707336 314.07144165 C-26.55160448 312.80776725 -26.55613559 311.54409284 -26.56080401 310.24212527 C-26.57305353 306.7320935 -26.57277125 303.22215689 -26.57041526 299.71210861 C-26.57000758 295.92738115 -26.58104166 292.14268439 -26.5905304 288.35797119 C-26.60715266 280.94160814 -26.61264052 273.52527688 -26.61375515 266.10889676 C-26.61470516 260.08026078 -26.61881308 254.05163529 -26.6251564 248.02300262 C-26.64277308 230.93252139 -26.65199475 213.84206528 -26.65049545 196.7515749 C-26.65041554 195.82996968 -26.65033563 194.90836445 -26.6502533 193.95883179 C-26.65017153 193.0361017 -26.65008977 192.11337161 -26.65000553 191.16268 C-26.64919278 176.21121982 -26.66832673 161.25986042 -26.69653003 146.30842939 C-26.72525722 130.95816849 -26.73907038 115.60795673 -26.73734248 100.25766826 C-26.73667846 91.63898258 -26.74217568 83.0204025 -26.76369858 74.40174103 C-26.78190834 67.06269663 -26.78625954 59.7238057 -26.77267973 52.38474849 C-26.76614865 48.64092953 -26.76603755 44.89740501 -26.78338623 41.15361404 C-26.80201095 37.09263444 -26.78956601 33.0323368 -26.77412415 28.97134399 C-26.78441127 27.79118123 -26.7946984 26.61101847 -26.80529726 25.3950932 C-26.74046161 17.6881046 -25.71421287 12.24752551 -20.53355408 6.24398804 C-19.97539001 5.79797241 -19.41722595 5.35195679 -18.84214783 4.89242554 C-18.28656189 4.43094116 -17.73097595 3.96945679 -17.15855408 3.49398804 C-11.58711922 -0.1430817 -6.45591365 -0.02045708 0 0 Z " fill="#7E58C6" transform="translate(506.27964782714844,271.7325744628906)"/>
<path d="M0 0 C1.30162582 -0.00945648 2.60325165 -0.01891296 3.94432068 -0.02865601 C5.35749619 -0.02328542 6.77066891 -0.01713225 8.18383789 -0.01025391 C9.64205572 -0.01227653 11.10027256 -0.01518954 12.55848694 -0.01895142 C15.6107041 -0.02336734 18.66265734 -0.01696852 21.71484375 -0.00292969 C25.6165342 0.01414688 29.51760479 0.00432658 33.41927242 -0.01364708 C36.42969889 -0.02451789 39.43997985 -0.02102329 42.45041084 -0.0132637 C43.88844438 -0.01127 45.32649137 -0.01369169 46.7645092 -0.02070236 C48.77920128 -0.02836864 50.79393999 -0.01460136 52.80859375 0 C53.95267197 0.00238678 55.09675018 0.00477356 56.27549744 0.00723267 C60.70237594 0.53531321 64.00337836 1.85985194 67.11867189 5.10845351 C68.88495855 8.09045046 68.84452552 10.13070628 68.84537506 13.58960342 C68.85298151 14.8710402 68.86058795 16.15247698 68.86842489 17.47274518 C68.86172206 18.89786734 68.85474874 20.32298825 68.84753418 21.74810791 C68.85082391 23.25966367 68.85543679 24.77121703 68.86126184 26.28276515 C68.87350316 30.44272814 68.86709383 34.60248807 68.85775685 38.76245093 C68.85097368 43.24657168 68.86148637 47.73065444 68.87004089 52.21476746 C68.88262122 59.9876894 68.8845756 67.76055572 68.87968445 75.53348541 C68.87288424 86.78060277 68.88538017 98.02763606 68.90319163 109.2747384 C68.9318588 127.53309015 68.94935883 145.79143283 68.95776367 164.04980469 C68.95852444 165.68959739 68.95852444 165.68959739 68.95930058 167.36251721 C68.96282732 175.12107255 68.96595645 182.87962804 68.96899414 190.63818359 C68.97246219 199.49381524 68.97611155 208.34944676 68.98022461 217.20507812 C68.98072722 218.29573138 68.98122984 219.38638464 68.98174769 220.510088 C68.99049118 238.69443017 69.01092748 256.8787412 69.03970671 275.06306243 C69.05689218 286.28149805 69.06346903 297.49984557 69.05640066 308.71829262 C69.05222216 316.40639749 69.05856844 324.09444681 69.07319939 331.78253874 C69.08125993 336.21893755 69.08436418 340.65519865 69.07437706 345.0915966 C69.06530769 349.15424331 69.07001727 353.21663412 69.0855915 357.27925894 C69.08877755 358.74764144 69.08690877 360.21604561 69.07942611 361.68441251 C68.72883275 373.92451155 68.72883275 373.92451155 74.31422043 384.36452484 C77.00949759 385.64495816 78.96098287 385.764524 81.94537354 385.76672363 C83.0583934 385.7749263 84.17141327 385.78312897 85.31816101 385.7915802 C86.53485977 385.78543198 87.75155853 385.77928375 89.00512695 385.77294922 C90.97761174 385.78119673 92.95009653 385.789445 94.9225812 385.79772186 C97.04124184 385.80371997 99.15978477 385.80233813 101.27845001 385.7988739 C105.70011962 385.79205913 110.12152989 385.80794233 114.54315186 385.82727051 C123.93508529 385.86512987 133.32699612 385.87791807 142.71899414 385.88818359 C152.84525811 385.89926354 162.97140236 385.91470683 173.09758449 385.95889616 C177.48764099 385.97720025 181.87740063 385.98116322 186.2674861 385.97396088 C188.34512387 385.97280183 190.42261058 385.97846372 192.50022888 385.98713684 C195.02603521 385.99764065 197.55191753 385.99763585 200.07771301 385.98478699 C209.5744319 386.05407319 216.66578435 387.61588366 223.70727539 394.35302734 C229.52285 401.07124103 229.71228955 408.30755576 229.96899414 416.82568359 C230.34125014 428.42312263 231.49373515 435.94244828 240.09399414 444.32568359 C241.05563477 445.20095703 242.01727539 446.07623047 243.00805664 446.97802734 C245.21118482 449.13569415 246.46430814 450.51596363 247.46899414 453.38818359 C247.46899414 456.77885365 247.43739529 459.28426275 245.12915039 461.91552734 C239.77973289 466.42787218 236.02009032 466.53840003 229.26037598 466.54208374 C228.29383732 466.54646599 227.32729867 466.55084825 226.33147097 466.5553633 C223.07197157 466.56878601 219.81249924 466.57493801 216.55297852 466.58105469 C214.22410967 466.58895309 211.89524205 466.59722188 209.56637573 466.60583496 C201.89851048 466.63209138 194.23063968 466.64736897 186.56274414 466.66162109 C183.92493181 466.66697981 181.28711951 466.67235731 178.64930725 466.67775345 C167.67581417 466.69938994 156.70232239 466.71827746 145.72881317 466.72937584 C142.88016252 466.73230551 140.0315119 466.73526716 137.18286133 466.73828125 C136.47484912 466.7390273 135.76683691 466.73977335 135.03736979 466.74054201 C123.5790251 466.75318389 112.120836 466.78638974 100.66256398 466.82808308 C88.8945022 466.87055183 77.12651994 466.89407681 65.35838175 466.8992964 C58.75274019 466.90294996 52.14736209 466.91497187 45.54179382 466.94739914 C39.32341663 466.97748649 33.1054622 466.9837888 26.88702774 466.97201538 C24.60782928 466.97179469 22.32861117 466.98009608 20.04948044 466.99766922 C16.93030813 467.02040488 13.81266298 467.01204437 10.69348145 466.9961853 C9.7979284 467.01006739 8.90237536 467.02394948 7.97968435 467.03825223 C1.28634958 466.95477997 -3.93252002 465.08258118 -9.53100586 461.38818359 C-14.24289796 455.75689791 -14.68044162 451.1030604 -14.66243362 443.99146366 C-14.66448626 443.24039672 -14.66653889 442.48932979 -14.66865373 441.71550325 C-14.67433353 439.18459183 -14.67286527 436.65373467 -14.67144775 434.12281799 C-14.67403081 432.29564204 -14.67704381 430.46846664 -14.68045115 428.64129204 C-14.68853109 423.60908248 -14.69031128 418.57688717 -14.69104862 413.54467189 C-14.6928974 408.12196079 -14.70044375 402.69925711 -14.70718384 397.27655029 C-14.72077376 385.41526048 -14.72679263 373.55397404 -14.7311945 361.69267774 C-14.73395526 354.29069716 -14.73819225 346.8887179 -14.74269867 339.4867382 C-14.75489116 319.00403837 -14.76519119 298.52133959 -14.76857376 278.03863621 C-14.76879333 276.72738272 -14.76901289 275.41612923 -14.76923911 274.06514078 C-14.76945739 272.75070852 -14.76967567 271.43627626 -14.76990056 270.08201271 C-14.77034403 267.41836329 -14.77079059 264.75471387 -14.77124023 262.09106445 C-14.77134963 261.43063448 -14.77145902 260.77020451 -14.77157172 260.08976151 C-14.77509105 239.33171769 -14.78968629 218.5737053 -14.81225586 197.81567383 C-14.83758512 174.50296128 -14.85270369 151.19027081 -14.85394168 127.87754387 C-14.8548597 115.53046598 -14.86064412 103.18343237 -14.87876129 90.83636665 C-14.89412931 80.32570154 -14.89930223 69.81509439 -14.89102319 59.30442018 C-14.88710524 53.93879825 -14.88810197 48.57329316 -14.90208054 43.20768547 C-14.91475072 38.29957643 -14.91368291 33.39167285 -14.90148982 28.48356437 C-14.89952085 26.70433158 -14.90266614 24.92508458 -14.91133419 23.14587183 C-14.92234456 20.73391048 -14.91499764 18.3226848 -14.90294266 15.91074467 C-14.91053785 15.21429809 -14.91813304 14.51785152 -14.9259584 13.80030051 C-14.87924729 9.49360231 -14.13258776 6.82909435 -11.53100586 3.38818359 C-7.70958824 0.39008337 -4.79286363 0.01000585 0 0 Z " fill="#7F59C6" transform="translate(278.531005859375,271.61181640625)"/>
<path d="M0 0 C1.30185242 -0.00960754 2.60370483 -0.01921509 3.94500732 -0.02911377 C5.37381821 -0.03396251 6.80263112 -0.03824115 8.23144531 -0.04199219 C9.6939494 -0.04774469 11.15645347 -0.05350241 12.61895752 -0.05926514 C15.68900911 -0.069778 18.7590345 -0.07561827 21.82910156 -0.07910156 C25.75435766 -0.08457612 29.67926509 -0.1085803 33.60441208 -0.13707352 C36.6276753 -0.15574403 39.65085545 -0.16090791 42.67417145 -0.16243744 C44.12059681 -0.16545636 45.56702097 -0.17345916 47.01338959 -0.18662262 C49.0427102 -0.20376771 51.07217475 -0.19994588 53.1015625 -0.1953125 C54.25468933 -0.19895813 55.40781616 -0.20260376 56.59588623 -0.20635986 C61.19614694 0.31969126 64.53708592 1.88864842 67.80957031 5.16113281 C67.47957031 6.15113281 67.14957031 7.14113281 66.80957031 8.16113281 C66.12051102 7.34980392 65.43145172 6.53847504 64.72151184 5.70256042 C61.23118172 2.65633808 59.7784274 2.52590353 55.21850586 2.49829102 C53.90331467 2.47930252 52.58812347 2.46031403 51.233078 2.44075012 C49.80414205 2.44638332 48.3752112 2.45347417 46.94628906 2.46191406 C45.47043788 2.45600028 43.99459149 2.44875152 42.51875305 2.44023132 C39.42769355 2.42836224 36.33735451 2.43503562 33.24633789 2.4543457 C29.30166888 2.47717952 25.35916173 2.45051161 21.41470623 2.40928364 C18.36635427 2.38359199 15.31851133 2.3863168 12.2700901 2.39717674 C10.81694392 2.39865535 9.36375712 2.39106745 7.91071129 2.37392616 C0.1117913 2.29688256 -5.93994869 2.38525557 -11.97697449 7.87541199 C-12.3774147 8.29969986 -12.77785492 8.72398773 -13.19042969 9.16113281 C-12.41857776 5.36553108 -11.11950745 3.73517085 -8.19042969 1.16113281 C-5.40688028 -0.23064189 -3.1144852 0.01849282 0 0 Z " fill="#845FD2" transform="translate(278.1904296875,271.8388671875)"/>
<path d="M0 0 C5.08284597 1.99683235 7.29749192 5.5149953 9.578125 10.3359375 C11.71868176 16.21658793 11.56844376 22.30907542 11.6875 28.5 C11.73874023 30.30597656 11.73874023 30.30597656 11.79101562 32.1484375 C11.87297195 35.09886516 11.94229384 38.04901516 12 41 C8.96170194 36.44255292 8.91048628 32.39006569 8.70996094 26.97216797 C8.29852188 16.21090859 6.77864226 8.61070774 0 0 Z " fill="#906ADF" transform="translate(497,663)"/>
<path d="M0 0 C2.64 0 5.28 0 8 0 C8.33 0.99 8.66 1.98 9 3 C6.03 3 3.06 3 0 3 C0 2.01 0 1.02 0 0 Z " fill="#7452BE" transform="translate(496,272)"/>
<path d="M0 0 C1.36125 0.12375 1.36125 0.12375 2.75 0.25 C-0.45336822 3.08374881 -3.03087253 3.7705537 -7.25 4.25 C-4.83923194 1.28290085 -3.90322061 0.30024774 0 0 Z " fill="#8762D6" transform="translate(496.25,272.75)"/>
</svg>
